# xmcd
#
# Track frame offsets: 
#        150
#        24457
#        61587
#        85073
#        117140
#        137713
#        159400
#        187631
#        208830
#        237342
#        261342
#        288521
#
# Disc length: 4292 seconds
#
# Revision: 1
# Processed by: cddbd v1.5.2PL0 Copyright (c) Steve Scherf et al.
# Submitted via: ExactAudioCopy v1.1
#
DISCID=9d10c20c
DTITLE=Hirotaka Izumi Piano Trio - 和泉宏隆 吉野弘志 石川雅春 - The Water Colors -
DTITLE=a return of saga
DYEAR=2015
DGENRE=Jazz
TTITLE0=The Sun Comes Up
TTITLE1=Sky So Blue
TTITLE2=Colors on the Street
TTITLE3=In the Stream
TTITLE4=Three Swallows
TTITLE5=Distant Thunder
TTITLE6=After the Ship Has Gone
TTITLE7=Here, There and Everywhere
TTITLE8=Moon Palace
TTITLE9=Pavane for Dead Princess
TTITLE10=Silver Girl in the Mist
TTITLE11=Forgotten Saga
EXTD=YEAR: 2015
EXTT0=
EXTT1=
EXTT2=
EXTT3=
EXTT4=
EXTT5=
EXTT6=
EXTT7=
EXTT8=
EXTT9=
EXTT10=
EXTT11=
PLAYORDER=
